<?xml version="1.0" encoding="UTF-8" standalone="no"?>
<svg width="95px" height="21px" viewBox="0 0 95 21" version="1.1" xmlns="http://www.w3.org/2000/svg" xmlns:xlink="http://www.w3.org/1999/xlink">
    <!-- Generator: Sketch 3.8.3 (29802) - http://www.bohemiancoding.com/sketch -->
    <title>hello_title_taipei</title>
    <desc>Created with Sketch.</desc>
    <defs></defs>
    <g id="Mobile" stroke="none" stroke-width="1" fill="none" fill-rule="evenodd">
        <g id="Artboard-6" transform="translate(-41.000000, -111.000000)" fill="#2A2A2A">
            <path d="M43.132,114.184 C42.304,113.698 42.034,113.554 41.17,113.086 C41.278,114.238 41.314,115.336 41.314,117.874 C41.314,119.548 41.314,119.548 41.224,124.714 C41.278,125.002 41.422,125.074 41.854,125.074 C42.268,125.074 42.628,125.02 42.88,124.93 C42.988,124.876 43.042,124.786 43.06,124.606 L43.06,122.878 L44.374,122.878 L44.374,123.976 C44.374,124.246 44.5,124.336 44.878,124.336 C45.202,124.336 45.688,124.282 45.958,124.21 C46.156,124.156 46.228,124.084 46.246,123.85 C46.192,121.672 46.192,121.438 46.174,119.278 C47.722,118.342 48.496,117.766 49.378,116.92 C50.476,115.858 51.124,114.94 52.024,113.158 C52.888,115.498 53.608,116.704 54.832,117.964 C55.552,118.684 56.29,119.296 56.452,119.296 C56.524,119.296 56.578,119.224 56.632,119.08 C56.956,117.946 57.118,117.712 57.892,117.208 L57.892,117.028 C56.47,116.686 55.678,116.344 54.688,115.642 C53.626,114.886 52.924,114.148 52.276,113.122 C52.78,113.05 52.978,112.96 52.978,112.78 C52.978,112.564 52.654,112.474 50.062,111.826 C49.738,113.356 49,115.138 48.064,116.65 C47.452,117.622 46.984,118.198 46.156,118.954 L46.156,118.504 L46.156,118.018 L46.156,116.632 C46.174,116.272 46.174,115.696 46.174,114.976 C46.696,114.67 46.732,114.634 46.732,114.49 C46.732,114.382 46.678,114.31 46.534,114.184 C46.012,113.716 45.832,113.572 45.256,113.122 C44.842,113.572 44.716,113.716 44.32,114.184 L43.132,114.184 Z M44.374,114.562 L44.374,122.5 L43.06,122.5 L43.06,114.562 L44.374,114.562 Z M48.352,118.954 C48.838,118.864 49.108,118.846 49.558,118.846 L54.778,118.846 C54.868,118.846 54.958,118.792 54.958,118.738 C54.958,118.684 54.922,118.612 54.868,118.54 C54.094,117.856 53.86,117.658 53.032,117.028 C52.564,117.622 52.402,117.802 51.916,118.468 L49.558,118.468 C49.072,118.468 48.748,118.432 48.226,118.306 L48.352,118.954 Z M49.432,121.366 C48.496,120.826 48.208,120.682 47.254,120.232 C47.326,121.15 47.344,121.744 47.344,123.112 C47.344,125.272 47.326,126.28 47.254,127.972 C47.29,128.224 47.434,128.332 47.704,128.332 L47.758,128.332 L47.938,128.332 C48.352,128.314 48.838,128.26 49.018,128.188 C49.18,128.134 49.216,128.08 49.252,127.882 L49.252,126.91 L53.842,126.91 L53.842,127.936 C53.86,128.206 53.95,128.26 54.472,128.26 C54.994,128.26 55.516,128.188 55.642,128.08 C55.732,128.026 55.768,127.936 55.804,127.774 C55.786,127.126 55.768,126.622 55.768,126.298 C55.732,125.164 55.714,124.372 55.714,124.03 C55.714,123.616 55.714,123.004 55.75,122.176 C56.254,121.906 56.326,121.852 56.326,121.708 C56.326,121.6 56.254,121.51 56.056,121.348 C55.462,120.88 55.282,120.736 54.634,120.286 C54.184,120.736 54.058,120.88 53.608,121.366 L49.432,121.366 Z M53.842,121.744 L53.842,126.532 L49.252,126.532 L49.252,121.744 L53.842,121.744 Z M65.668,115.75 L73.12,115.75 L73.12,116.074 C73.12,116.29 73.174,116.326 73.66,116.326 C74.506,116.326 74.686,116.272 74.686,115.966 C74.668,115.048 74.668,114.94 74.668,113.464 C75.118,113.23 75.226,113.14 75.226,113.014 C75.226,112.906 75.154,112.798 74.956,112.636 C74.47,112.24 74.308,112.132 73.768,111.754 C73.444,112.114 73.354,112.24 73.03,112.636 L65.794,112.636 C65.056,112.204 64.84,112.078 64.084,111.7 C64.12,112.528 64.138,112.942 64.138,113.68 C64.138,115.03 64.138,115.102 64.102,115.966 C64.102,116.29 64.174,116.344 64.642,116.344 C65.038,116.344 65.398,116.308 65.524,116.236 C65.416,116.884 65.29,117.334 65.02,118.072 C64.642,117.82 64.372,117.676 63.778,117.388 L63.688,117.496 C64.318,118.432 64.516,118.846 64.696,119.62 C64.858,120.322 64.912,120.412 65.128,120.412 C65.506,120.412 65.902,119.8 65.902,119.206 C65.902,118.882 65.74,118.63 65.38,118.342 C65.956,117.874 66.244,117.586 66.748,117.01 C67.198,117.01 67.378,116.938 67.378,116.776 C67.378,116.596 67.288,116.542 65.668,115.912 L65.668,115.75 Z M67.126,113.014 L67.126,115.372 L65.668,115.372 L65.668,113.014 L67.126,113.014 Z M68.62,113.014 L70.096,113.014 L70.096,115.372 L68.62,115.372 L68.62,113.014 Z M71.59,113.014 L73.12,113.014 L73.12,115.372 L71.59,115.372 L71.59,113.014 Z M65.506,123.85 C65.11,123.706 64.84,123.616 64.156,123.382 C64.012,124.372 63.94,124.714 63.796,125.236 C63.508,126.19 63.184,126.964 62.662,127.954 L62.824,128.08 C63.976,126.964 64.66,125.992 65.416,124.39 L65.506,124.354 L65.506,124.516 C65.506,125.506 65.488,126.676 65.47,128.17 L65.47,128.188 C65.47,128.476 65.578,128.548 65.902,128.548 L66.118,128.548 C66.802,128.548 67,128.458 67,128.134 L67,128.062 C66.964,126.082 66.964,125.704 66.964,124.408 L66.964,123.472 C67.414,124.3 67.522,124.678 67.666,126.226 C67.72,126.874 67.756,126.964 67.936,126.964 C68.35,126.964 68.836,126.244 68.836,125.632 C68.836,124.984 68.278,124.264 67.09,123.364 L66.964,123.454 L66.964,122.14 C67.198,122.05 67.432,121.96 67.666,121.87 C67.81,122.626 67.81,122.626 67.882,122.968 C67.936,123.166 68.026,123.274 68.152,123.274 C68.476,123.274 68.854,122.662 68.854,122.122 C68.854,121.762 68.746,121.51 68.35,121.06 C68.674,120.736 68.836,120.574 69.142,120.232 L69.142,123.994 C69.142,124.426 69.106,126.874 69.088,128.098 C69.088,128.44 69.124,128.458 69.862,128.458 C70.51,128.458 70.636,128.404 70.636,128.098 L70.636,127.432 L75.496,127.432 C75.568,127.432 75.64,127.396 75.64,127.324 C75.64,127.27 75.604,127.216 75.55,127.126 C75.064,126.532 74.902,126.352 74.362,125.74 C73.984,126.316 73.858,126.496 73.48,127.054 L73.102,127.054 L73.102,124.444 L75.082,124.444 C75.172,124.444 75.226,124.408 75.226,124.336 C75.226,124.318 75.208,124.246 75.172,124.174 C74.74,123.652 74.596,123.472 74.128,122.95 C73.786,123.418 73.678,123.58 73.372,124.066 L73.102,124.066 L73.102,121.816 L75.082,121.816 C75.154,121.816 75.226,121.78 75.226,121.726 C75.226,121.672 75.19,121.618 75.154,121.546 C74.722,121.024 74.596,120.862 74.128,120.34 C73.768,120.808 73.678,120.952 73.318,121.438 L73.102,121.438 L73.102,119.26 L75.28,119.26 C75.37,119.26 75.424,119.224 75.424,119.152 C75.424,119.134 75.388,119.062 75.352,118.99 C74.866,118.45 74.704,118.306 74.164,117.82 C73.75,118.288 73.624,118.414 73.228,118.882 L72.094,118.882 C72.544,118.396 72.706,118.198 73.39,117.298 C73.858,117.244 74.002,117.172 74.002,117.01 C74.002,116.848 73.858,116.776 73.066,116.506 C72.886,116.434 72.598,116.344 72.22,116.2 C72.166,116.812 71.896,117.964 71.626,118.882 L70.186,118.882 C70.51,118.36 70.708,118.018 71.122,117.172 C71.41,117.082 71.554,117.028 71.572,117.01 C71.608,116.992 71.644,116.92 71.644,116.866 C71.644,116.686 71.338,116.56 69.808,116.056 C69.61,117.424 68.926,119.458 68.188,120.88 C67.882,120.574 67.666,120.412 67.144,120.052 L67.054,120.124 C67.324,120.7 67.396,120.934 67.54,121.402 C67.018,121.438 66.478,121.474 65.596,121.492 C66.766,120.358 67.612,119.458 68.404,118.522 C68.494,118.54 68.566,118.54 68.62,118.54 C68.872,118.54 68.998,118.486 68.998,118.36 C68.998,118.198 68.98,118.18 67.306,117.316 C66.892,118.45 66.172,119.746 65.038,121.492 L64.786,121.492 C64.354,121.492 63.922,121.474 63.49,121.456 C63.76,123.166 63.832,123.508 63.976,123.508 C64.12,123.508 64.174,123.382 64.246,122.95 C64.75,122.824 64.876,122.788 65.506,122.608 L65.506,123.85 Z M71.698,121.438 L70.636,121.438 L70.636,119.26 L71.698,119.26 L71.698,121.438 Z M71.698,121.816 L71.698,124.066 L70.636,124.066 L70.636,121.816 L71.698,121.816 Z M71.698,124.444 L71.698,127.054 L70.636,127.054 L70.636,124.444 L71.698,124.444 Z M60.826,113.698 C60.088,113.23 59.836,113.104 59.044,112.69 C59.116,113.734 59.152,114.436 59.152,115.426 C59.152,117.28 59.116,120.448 59.044,123.922 C59.062,124.156 59.17,124.228 59.566,124.228 C59.836,124.228 60.322,124.192 60.466,124.156 C60.646,124.102 60.7,124.048 60.718,123.868 L60.718,122.212 L61.726,122.212 L61.726,123.202 C61.726,123.436 61.798,123.49 62.086,123.49 C62.5,123.49 63.058,123.418 63.184,123.346 C63.274,123.292 63.31,123.238 63.31,123.076 C63.256,118.504 63.256,118.504 63.256,117.442 C63.256,116.74 63.256,115.714 63.274,114.364 C63.67,114.166 63.76,114.094 63.76,113.968 C63.76,113.914 63.706,113.824 63.58,113.698 C63.112,113.302 62.95,113.158 62.41,112.762 C62.05,113.158 61.942,113.284 61.6,113.698 L60.826,113.698 Z M61.726,114.076 L61.726,121.834 L60.718,121.834 L60.718,114.076 L61.726,114.076 Z M85.378,122.878 C85.45,120.502 85.702,118.378 86.134,116.326 C86.512,114.526 86.512,114.526 86.512,114.148 C86.512,113.428 86.044,113.104 85.018,113.104 C83.992,113.104 83.506,113.428 83.506,114.148 C83.506,114.346 83.56,114.706 83.614,114.994 C84.37,118.54 84.55,119.998 84.64,122.878 L85.378,122.878 Z M85,124.156 C84.172,124.156 83.506,124.822 83.506,125.65 C83.506,126.478 84.172,127.144 85,127.144 C85.828,127.144 86.494,126.478 86.494,125.65 C86.494,124.804 85.846,124.156 85,124.156 L85,124.156 Z M97.924,117.676 L97.132,117.676 C96.43,117.676 96.178,117.658 95.422,117.586 C95.908,120.142 95.944,120.286 96.178,120.286 C96.322,120.286 96.43,120.106 96.574,119.638 C100.822,119.152 104.782,118.54 107.77,117.928 C108.112,118.414 108.49,119.008 108.652,119.278 C109.03,119.98 109.138,120.07 109.408,120.07 C109.93,120.07 110.398,119.26 110.398,118.396 C110.398,117.64 110.02,117.154 108.904,116.452 C108.004,115.894 106.816,115.318 104.98,114.58 L104.872,114.724 C105.988,115.714 106.492,116.218 107.302,117.28 C104.89,117.496 102.028,117.64 99.544,117.658 C100.678,116.398 102.28,114.346 103.018,113.194 C103.684,113.14 103.918,113.05 103.918,112.852 C103.918,112.6 103.792,112.564 100.768,111.772 C100.642,112.762 100.426,113.482 99.724,115.192 C99.238,116.38 99.076,116.758 98.626,117.676 L97.924,117.676 Z M99.598,121.222 C98.608,120.7 98.302,120.556 97.258,120.142 C97.33,121.276 97.348,121.708 97.348,122.986 C97.348,125.38 97.33,126.352 97.276,128.062 C97.276,128.386 97.384,128.422 98.068,128.422 C99.148,128.422 99.382,128.35 99.4,127.954 L99.4,127.144 L106.654,127.144 L106.654,128.008 C106.672,128.314 106.762,128.368 107.356,128.368 C108.184,128.368 108.634,128.296 108.76,128.134 C108.796,128.062 108.814,128.008 108.814,127.846 C108.742,126.1 108.706,124.822 108.706,123.166 L108.706,122.032 C109.228,121.726 109.336,121.636 109.336,121.474 C109.336,121.366 109.264,121.276 109.084,121.132 C108.436,120.664 108.238,120.52 107.554,120.07 C107.086,120.538 106.942,120.7 106.474,121.222 L99.598,121.222 Z M99.4,121.6 L106.654,121.6 L106.654,126.766 L99.4,126.766 L99.4,121.6 Z M114.358,117.028 C114.034,117.028 113.458,116.956 113.026,116.848 L113.116,117.514 C113.476,117.46 114.142,117.406 114.358,117.406 L117.544,117.406 L117.544,118.54 L117.544,122.338 C115.924,122.986 114.268,123.472 112.648,123.796 C113.602,126.262 113.764,126.622 114.016,126.622 C114.178,126.622 114.304,126.406 114.304,126.1 C114.304,125.992 114.286,125.83 114.268,125.668 C115.24,124.984 116.05,124.354 116.86,123.652 C117.274,123.292 117.274,123.292 117.544,123.076 C117.472,126.712 117.472,126.712 117.436,127.882 L117.436,127.99 C117.436,128.242 117.598,128.35 117.958,128.35 L118.066,128.35 C118.156,128.35 118.3,128.332 118.498,128.332 C119.308,128.296 119.542,128.17 119.542,127.756 L119.542,127.63 C119.524,126.676 119.506,121.582 119.506,117.586 C119.506,116.686 119.506,116.146 119.542,113.158 C120.136,112.996 120.316,112.888 120.316,112.69 C120.316,112.636 120.28,112.546 120.226,112.51 C120.028,112.402 119.182,112.276 117.418,112.132 C117.526,113.266 117.526,113.266 117.544,117.028 L114.358,117.028 Z M123.736,113.158 C124.384,113.014 124.618,112.906 124.618,112.708 C124.618,112.402 124.222,112.33 121.648,112.132 C121.72,112.924 121.756,113.752 121.756,114.922 L121.756,120.052 C121.738,123.742 121.738,125.848 121.738,126.352 C121.792,127.216 121.99,127.594 122.512,127.792 C122.926,127.954 123.412,127.99 125.644,127.99 C127.75,127.99 128.452,127.9 128.92,127.54 C129.172,127.36 129.352,127.018 129.352,126.712 C129.352,126.316 129.154,126.046 128.722,125.902 C128.38,125.776 128.326,125.704 128.326,125.326 L128.326,125.128 L128.38,121.816 L128.2,121.816 C127.246,125.002 127.12,125.344 126.886,125.74 C126.67,126.1 126.418,126.19 125.572,126.19 C123.862,126.19 123.736,126.154 123.736,125.704 L123.736,119.44 C125.464,118.72 126.562,118.108 128.362,116.902 C128.668,116.938 128.866,116.956 128.956,116.956 C129.208,116.956 129.388,116.848 129.388,116.704 C129.388,116.488 129.208,116.344 127.93,115.588 C127.678,115.444 127.3,115.21 126.796,114.886 C126.418,115.75 126.04,116.326 125.122,117.442 C124.564,118.108 124.222,118.486 123.736,118.954 L123.736,113.158 Z M133.078,123.814 C131.746,123.814 130.648,124.912 130.648,126.244 C130.648,127.594 131.746,128.692 133.078,128.692 C134.428,128.692 135.508,127.594 135.508,126.244 C135.508,124.894 134.428,123.814 133.078,123.814 L133.078,123.814 Z M133.078,124.462 C134.068,124.462 134.86,125.254 134.86,126.244 C134.86,127.216 134.068,128.026 133.078,128.026 C132.106,128.026 131.296,127.216 131.296,126.244 C131.296,125.254 132.088,124.462 133.078,124.462 L133.078,124.462 Z" id="hello_title_taipei"></path>
        </g>
    </g>
</svg>