<svg class="facebook-icon" xmlns="http://www.w3.org/2000/svg" width="266" height="266" viewBox="0 0 266 266"><style><![CDATA[
		.fb_square
		{
			fill: #3b5998;
		}
		.fb_chara
		{
			fill: #fff;
		}
		]]></style><path class="fb_square" d="M252.164 266.895c8.134 0 14.73-6.596 14.73-14.73V14.73c0-8.137-6.597-14.73-14.73-14.73H14.73C6.593 0 0 6.594 0 14.73v237.434c0 8.135 6.593 14.73 14.73 14.73h237.434z"/><path class="fb_chara" d="M184.152 266.895V163.54h34.692l5.194-40.28H184.15V97.54c0-11.662 3.24-19.61 19.963-19.61l21.33-.01V41.898c-3.69-.49-16.352-1.587-31.08-1.587-30.754 0-51.808 18.77-51.808 53.245v29.705h-34.78v40.28h34.78v103.354h41.597z"/></svg>