<svg width="20" height="24" viewBox="0 0 20 24" xmlns="http://www.w3.org/2000/svg"><title>key</title><path d="M18.977 5.533c-.16-.908-.47-1.733-.933-2.474-.462-.742-1.032-1.36-1.71-1.854-.677-.494-1.426-.84-2.247-1.04-.82-.2-1.67-.22-2.546-.06-.876.16-1.7.447-2.473.86-.773.415-1.43.933-1.973 1.555-.542.623-.944 1.328-1.207 2.117-.263.79-.315 1.638-.156 2.546.065.4.18.873.348 1.423.167.55.363 1.048.586 1.494L.328 19.544c-.127.175-.22.398-.275.67-.056.27-.067.51-.036.716l.407 2.415c.048.207.155.374.323.502.167.127.346.175.538.143l1.864-.358c.207-.032.418-.124.633-.275.215-.152.378-.323.49-.514l2.51-4.04.024-.025 1.698-.31 2.917-4.758c.478.08 1.024.112 1.637.096s1.12-.056 1.517-.12c.877-.175 1.626-.526 2.248-1.052.62-.526 1.12-1.163 1.494-1.913.374-.748.613-1.572.716-2.473.104-.9.084-1.805-.06-2.714zm-3.11 1.865c-.477.717-.975.93-1.493.634-.518-.295-1.12-.698-1.805-1.208-.686-.494-1.252-.948-1.698-1.362-.447-.415-.43-.98.047-1.698.478-.717 1.127-1.15 1.948-1.303.82-.15 1.574.03 2.26.54.685.493 1.103 1.17 1.254 2.03.152.862-.02 1.65-.514 2.368z" fill="#2892D7" fill-rule="evenodd"/></svg>