<svg width="9" height="12" viewBox="0 0 9 12" xmlns="http://www.w3.org/2000/svg"><title>place_pin</title><path d="M4.197 5.69c.413 0 .765-.145 1.057-.436.29-.292.436-.644.436-1.057 0-.413-.145-.765-.436-1.056-.292-.29-.644-.436-1.057-.436-.413 0-.765.146-1.056.437-.29.292-.436.644-.436 1.057 0 .413.146.765.437 1.057.292.29.644.436 1.057.436zm0-5.69C5.362 0 6.352.408 7.17 1.225c.816.817 1.224 1.808 1.224 2.972 0 .582-.145 1.25-.436 2-.29.75-.643 1.456-1.057 2.113-.412.657-.82 1.272-1.224 1.845s-.746 1.028-1.028 1.366l-.45.48-.452-.52c-.187-.217-.525-.65-1.014-1.297-.488-.648-.915-1.277-1.28-1.887-.367-.61-.7-1.3-1-2.07C.15 5.455 0 4.778 0 4.195c0-1.163.408-2.154 1.225-2.97C2.042.407 3.033 0 4.197 0z" fill="#FFF" fill-rule="evenodd"/></svg>