<?xml version="1.0" encoding="UTF-8" standalone="no"?>
<svg width="27px" height="23px" viewBox="0 0 27 23" version="1.1" xmlns="http://www.w3.org/2000/svg" xmlns:xlink="http://www.w3.org/1999/xlink">
    <!-- Generator: Sketch 3.8.2 (29753) - http://www.bohemiancoding.com/sketch -->
    <title>raining</title>
    <desc>Created with Sketch.</desc>
    <defs>
        <path d="M4.101,8.102 C2.325,8.512 1,10.105 1,12 C1,14.209 2.798,16 5.003,16 L21.997,16 C24.208,16 26,14.205 26,12 C26,10.123 24.701,8.547 22.958,8.116 C22.986,7.915 23,7.709 23,7.5 C23,5.015 20.985,3 18.5,3 C17.274,3 16.163,3.49 15.352,4.285 C14.361,2.335 12.336,1 10,1 C6.686,1 4,3.686 4,7 C4,7.376 4.035,7.745 4.101,8.102 L4.101,8.102 Z M23.999,7.415 C25.768,8.185 27,9.948 27,12 C27,14.756 24.762,17 22.001,17 L4.999,17 C2.232,17 0,14.761 0,12 C0,9.949 1.24,8.182 3.012,7.412 C3.004,7.275 3,7.138 3,7 C3,3.134 6.134,0 10,0 C12.298,0 14.337,1.107 15.614,2.817 C16.453,2.299 17.441,2 18.5,2 C21.509,2 23.954,4.416 23.999,7.415 L23.999,7.415 Z M7.5,18 C7.224,18 7,18.216 7,18.495 L7,20.505 C7,20.778 7.232,21 7.5,21 C7.776,21 8,20.784 8,20.505 L8,18.495 C8,18.222 7.768,18 7.5,18 L7.5,18 Z M10.5,20 C10.224,20 10,20.216 10,20.495 L10,22.505 C10,22.778 10.232,23 10.5,23 C10.776,23 11,22.784 11,22.505 L11,20.495 C11,20.222 10.768,20 10.5,20 L10.5,20 Z M13.5,18 C13.224,18 13,18.216 13,18.495 L13,20.505 C13,20.778 13.232,21 13.5,21 C13.776,21 14,20.784 14,20.505 L14,18.495 C14,18.222 13.768,18 13.5,18 L13.5,18 Z M16.5,20 C16.224,20 16,20.216 16,20.495 L16,22.505 C16,22.778 16.232,23 16.5,23 C16.776,23 17,22.784 17,22.505 L17,20.495 C17,20.222 16.768,20 16.5,20 L16.5,20 Z M19.5,18 C19.224,18 19,18.216 19,18.495 L19,20.505 C19,20.778 19.232,21 19.5,21 C19.776,21 20,20.784 20,20.505 L20,18.495 C20,18.222 19.768,18 19.5,18 L19.5,18 Z" id="path-1"></path>
    </defs>
    <g id="Page-1" stroke="none" stroke-width="1" fill="none" fill-rule="evenodd">
        <g id="raining">
            <g>
                <mask id="mask-2" fill="white">
                    <use xlink:href="#path-1"></use>
                </mask>
                <g id="Clip-2"></g>
                <polygon id="Fill-1" fill="#FFFFFF" mask="url(#mask-2)" points="-0.06 23.08 27.06 23.08 27.06 -0.08 -0.06 -0.08"></polygon>
            </g>
        </g>
    </g>
</svg>