<svg width="13" height="21" viewBox="0 0 13 21" xmlns="http://www.w3.org/2000/svg"><title>chevy-right</title><path d="M3.013.883C2.667.537 2.25.363 1.766.363c-.485 0-.9.174-1.247.52C.172 1.23 0 1.645 0 2.13c0 .485.173.9.52 1.247l7.688 6.987-7.69 6.987c-.345.347-.518.763-.518 1.247 0 .485.173.9.52 1.247.346.346.76.52 1.246.52.485 0 .9-.174 1.247-.52l8.96-8.13c.174-.173.304-.38.39-.623.087-.242.122-.484.105-.726.017-.243-.018-.485-.104-.728-.087-.242-.217-.45-.39-.623L3.014.883z" fill="#FFF" fill-rule="evenodd"/></svg>